<svg width="14" height="14" viewBox="0 0 14 14" fill="none" xmlns="http://www.w3.org/2000/svg">
<g id="instagram 2">
<path id="Vector" d="M9.65595 1.80249H4.46328C3.02936 1.80249 1.86694 2.96491 1.86694 4.39882V9.59149C1.86694 11.0254 3.02936 12.1878 4.46328 12.1878H9.65595C11.0899 12.1878 12.2523 11.0254 12.2523 9.59149V4.39882C12.2523 2.96491 11.0899 1.80249 9.65595 1.80249Z" stroke="#A7A7A7" stroke-width="1.03853" stroke-linecap="round" stroke-linejoin="round"/>
<path id="Vector_2" d="M9.13661 6.66766C9.2007 7.09982 9.12688 7.54118 8.92567 7.92897C8.72445 8.31676 8.40608 8.63122 8.01584 8.82764C7.6256 9.02406 7.18336 9.09243 6.75203 9.02302C6.3207 8.95361 5.92223 8.74996 5.61331 8.44104C5.30438 8.13212 5.10073 7.73365 5.03133 7.30232C4.96192 6.87098 5.03029 6.42874 5.2267 6.0385C5.42312 5.64826 5.73759 5.3299 6.12538 5.12868C6.51317 4.92746 6.95453 4.85365 7.38669 4.91773C7.8275 4.9831 8.23561 5.18851 8.55072 5.50362C8.86584 5.81874 9.07125 6.22684 9.13661 6.66766Z" stroke="#A7A7A7" stroke-width="1.03853" stroke-linecap="round" stroke-linejoin="round"/>
<path id="Vector_3" d="M9.91553 4.13916H9.92076" stroke="#A7A7A7" stroke-width="1.03853" stroke-linecap="round" stroke-linejoin="round"/>
</g>
</svg>
