<svg width="12" height="13" viewBox="0 0 12 13" fill="none" xmlns="http://www.w3.org/2000/svg">
<g id="twitter 1" clip-path="url(#clip0_50_2424)">
<path id="Vector" d="M11.3813 2.04857C10.9172 2.37594 10.4034 2.62633 9.85954 2.79009C9.56765 2.45447 9.17974 2.2166 8.74825 2.10864C8.31677 2.00067 7.86254 2.02783 7.44699 2.18643C7.03145 2.34504 6.67464 2.62744 6.42482 2.99544C6.175 3.36344 6.04423 3.79929 6.05019 4.24403V4.72868C5.19849 4.75077 4.35454 4.56187 3.59351 4.17882C2.83249 3.79577 2.178 3.23046 1.68835 2.53322C1.68835 2.53322 -0.250243 6.89506 4.1116 8.83366C3.11348 9.51118 1.92445 9.8509 0.719055 9.80296C5.0809 12.2262 10.412 9.80296 10.412 4.2295C10.4116 4.0945 10.3986 3.95983 10.3733 3.82724C10.8679 3.33943 11.217 2.72355 11.3813 2.04857V2.04857Z" stroke="#A7A7A7" stroke-width="0.969298" stroke-linecap="round" stroke-linejoin="round"/>
</g>
<defs>
<clipPath id="clip0_50_2424">
<rect width="11.6316" height="11.6316" fill="white" transform="translate(0.234497 0.594727)"/>
</clipPath>
</defs>
</svg>
